# xmcd
#
# Track frame offsets: 
#        150
#        19936
#        31044
#        54605
#        68855
#        81670
#        92932
#        121607
#        139611
#        157326
#        186992
#        198560
#        220953
#        238014
#        250286
#        275402
#        289512
#
# Disc length: 4096 seconds
#
# Revision: 1
# Processed by: cddbd v1.5.2PL0 Copyright (c) Steve Scherf et al.
# Submitted via: ExactAudioCopyFreeDBPlugin 1.0
#
DISCID=020ffe11
DTITLE=Various Artist - Puro Blues - 50 Clásicos de Leyenda Vol.2
DYEAR=1998
DGENRE=Blues
TTITLE0=Pine Top Perkins - Got My Mojo Working
TTITLE1=Canned Heat - Spoonful
TTITLE2=Jimmy Witherspoon - Going to Chicago
TTITLE3=Rita Coolidge - Hallelujah I Love Him So
TTITLE4=Jimmy Reed - Caress Me Baby
TTITLE5=Jonh Lee Hooker - Boom, Boom
TTITLE6=Muddy Waters - Howlin' Wolf
TTITLE7=Gregg Smith - Money Talks
TTITLE8=Johny Winter - Stranger
TTITLE9=Rufus Thomas - Today
TTITLE10=Ray Charles - Ray Charles Blues
TTITLE11=Screamin' Jay Hawkins - Bushman Tucker
TTITLE12=Bo Diddley - Say Boss Man
TTITLE13=Lightnin' Hopkins - Shaggy Dog
TTITLE14=Howlin' Wolf - I Didn't Mean to Hurt Your Feelings
TTITLE15=Memphis Slim - Slims Blues
TTITLE16=James Cotton - V8 Ford Blues
EXTD=Puro Blues (vol. 2)
EXTT0=
EXTT1=
EXTT2=
EXTT3=
EXTT4=
EXTT5=
EXTT6=
EXTT7=
EXTT8=
EXTT9=
EXTT10=
EXTT11=
EXTT12=
EXTT13=
EXTT14=
EXTT15=
EXTT16=
PLAYORDER=
